<svg width="10" height="10" viewBox="0 0 10 10" fill="none" xmlns="http://www.w3.org/2000/svg">
<rect x="1" y="1.5" width="8" height="8" rx="1.5" stroke="#121212"/>
<rect x="2.75" y="5.25" width="0.5" height="0.5" rx="0.25" fill="#121212" stroke="#121212" stroke-width="0.5"/>
<rect x="2.75" y="7.25" width="0.5" height="0.5" rx="0.25" fill="#121212" stroke="#121212" stroke-width="0.5"/>
<rect x="2.75" y="3.25" width="0.5" height="0.5" rx="0.25" fill="#121212" stroke="#121212" stroke-width="0.5"/>
<rect x="4.75" y="5.25" width="0.5" height="0.5" rx="0.25" fill="#121212" stroke="#121212" stroke-width="0.5"/>
<rect x="4.75" y="7.25" width="0.5" height="0.5" rx="0.25" fill="#121212" stroke="#121212" stroke-width="0.5"/>
<rect x="4.75" y="3.25" width="0.5" height="0.5" rx="0.25" fill="#121212" stroke="#121212" stroke-width="0.5"/>
<rect x="6.75" y="5.25" width="0.5" height="0.5" rx="0.25" fill="#121212" stroke="#121212" stroke-width="0.5"/>
<rect x="6.75" y="7.25" width="0.5" height="0.5" rx="0.25" fill="#121212" stroke="#121212" stroke-width="0.5"/>
<rect x="6.75" y="3.25" width="0.5" height="0.5" rx="0.25" fill="#121212" stroke="#121212" stroke-width="0.5"/>
<rect x="2.75" y="0.25" width="0.5" height="1.5" rx="0.25" stroke="#121212" stroke-width="0.5"/>
<rect x="6.75" y="0.25" width="0.5" height="1.5" rx="0.25" stroke="#121212" stroke-width="0.5"/>
<rect x="4.75" y="0.25" width="0.5" height="1.5" rx="0.25" stroke="#121212" stroke-width="0.5"/>
</svg>
