<svg width="40" height="40" viewBox="0 0 40 40" fill="none" xmlns="http://www.w3.org/2000/svg">
<rect width="40" height="40" rx="8" fill="#EB5757"/>
<path fill-rule="evenodd" clip-rule="evenodd" d="M14 16.4844H26V24.4844C26 26.6935 24.2091 28.4844 22 28.4844H18C15.7909 28.4844 14 26.6935 14 24.4844V16.4844ZM16 18.4844V24.4844C16 25.5889 16.8954 26.4844 18 26.4844H22C23.1046 26.4844 24 25.5889 24 24.4844V18.4844H16Z" fill="white"/>
<path fill-rule="evenodd" clip-rule="evenodd" d="M12 14.5156C12 12.8588 13.3431 11.5156 15 11.5156H25C26.6569 11.5156 28 12.8588 28 14.5156V15.5156C28 17.1725 26.6569 18.5156 25 18.5156H15C13.3431 18.5156 12 17.1725 12 15.5156V14.5156ZM15 13.5156C14.4477 13.5156 14 13.9633 14 14.5156V15.5156C14 16.0679 14.4477 16.5156 15 16.5156H25C25.5523 16.5156 26 16.0679 26 15.5156V14.5156C26 13.9633 25.5523 13.5156 25 13.5156H15Z" fill="white"/>
</svg>
