<svg width="12" height="12" viewBox="0 0 12 12" fill="none" xmlns="http://www.w3.org/2000/svg">
<circle cx="6" cy="6" r="6" fill="#788BF0"/>
<path d="M6.13672 2.5C6.37109 2.5 6.57292 2.58464 6.74219 2.75391C6.91146 2.91667 6.99609 3.11198 6.99609 3.33984C6.99609 3.5612 6.91146 3.75651 6.74219 3.92578C6.57292 4.09505 6.37109 4.17969 6.13672 4.17969C5.90234 4.17969 5.70052 4.09505 5.53125 3.92578C5.36849 3.75651 5.28711 3.5612 5.28711 3.33984C5.28711 3.11198 5.36849 2.91667 5.53125 2.75391C5.70052 2.58464 5.90234 2.5 6.13672 2.5ZM6.85938 5.06836V10H5.61914V6.12305H4.82812V5.06836H6.85938Z" fill="white"/>
</svg>
