<svg width="12" height="12" viewBox="0 0 12 12" fill="none" xmlns="http://www.w3.org/2000/svg">
<path fill-rule="evenodd" clip-rule="evenodd" d="M8.79074 0.540793C9.04433 1.03141 8.85218 1.63472 8.36156 1.88831L8.32237 1.90857C8.75989 2.13016 9.16046 2.41257 9.51098 2.745C9.51374 2.74758 9.5165 2.75019 9.51924 2.75281C9.52534 2.75863 9.53141 2.76447 9.53747 2.77031C10.4132 3.61326 10.9699 4.7712 10.9988 6.07154C11.0004 6.14266 11.0004 6.21381 10.9988 6.28493C10.9697 7.59299 10.4066 8.75694 9.52185 9.60112L9.51924 9.60362C8.67505 10.4102 7.607 10.8673 6.50907 10.975C6.34142 10.9915 6.17157 11 5.99999 11C5.82082 11 5.64355 10.9908 5.46871 10.9728C4.38598 10.8619 3.33361 10.4109 2.49783 9.61983C1.57765 8.75142 1 7.5394 1 6.17824C1 6.17533 1.00001 6.17243 1.00004 6.16953C1.00233 4.93132 1.49591 3.69379 2.48078 2.75281C2.88011 2.37129 3.51311 2.38571 3.89463 2.78503C4.27616 3.18435 4.26173 3.81735 3.86241 4.19888C3.24825 4.78567 2.96213 5.56157 3.00404 6.32456C3.04264 7.02189 3.35541 7.66625 3.85224 8.14779C3.85562 8.15105 3.85901 8.1543 3.86241 8.15755C5.03744 9.28021 6.96023 9.28074 8.13596 8.15914C8.67439 7.64306 8.99997 6.93696 8.99997 6.17824C8.99997 5.30923 8.57287 4.50928 7.88805 3.98478C7.97393 4.39881 7.78901 4.83837 7.4013 5.0579C6.92071 5.33002 6.31052 5.16103 6.03839 4.68044L4.35519 1.70776L7.44322 0.111616C7.93384 -0.141977 8.53715 0.0501722 8.79074 0.540793Z" fill="#788BF0"/>
</svg>
