<svg width="36" height="36" viewBox="0 0 36 36" fill="none" xmlns="http://www.w3.org/2000/svg">
<rect width="36" height="36" rx="18" fill="#F4F6FF"/>
<g filter="url(#filter0_d_301_2453)">
<path d="M20.45 23C20.2184 24.1411 19.2095 25 18 25C16.7905 25 15.7816 24.1411 15.55 23H20.45Z" fill="#788BF0" stroke="#788BF0"/>
<path d="M14 15.5C14 13.2909 15.7909 11.5 18 11.5C20.2091 11.5 22 13.2909 22 15.5V19.422C22 19.6285 22.0481 19.8322 22.1405 20.017C22.1405 20.017 22.1405 20.017 22.1405 20.017L23.382 22.5L12.618 22.5L13.8595 20.017L12.988 19.5812L13.8595 20.017C13.9519 19.8322 14 19.6285 14 19.422V15.5Z" fill="#F4F6FF" stroke="#788BF0" stroke-width="2"/>
</g>
<defs>
<filter id="filter0_d_301_2453" x="8.6167" y="8.5" width="24.7666" height="27" filterUnits="userSpaceOnUse" color-interpolation-filters="sRGB">
<feFlood flood-opacity="0" result="BackgroundImageFix"/>
<feColorMatrix in="SourceAlpha" type="matrix" values="0 0 0 0 0 0 0 0 0 0 0 0 0 0 0 0 0 0 127 0" result="hardAlpha"/>
<feOffset dx="3" dy="4"/>
<feGaussianBlur stdDeviation="3"/>
<feComposite in2="hardAlpha" operator="out"/>
<feColorMatrix type="matrix" values="0 0 0 0 0.490196 0 0 0 0 0.560784 0 0 0 0 0.945098 0 0 0 0.3 0"/>
<feBlend mode="normal" in2="BackgroundImageFix" result="effect1_dropShadow_301_2453"/>
<feBlend mode="normal" in="SourceGraphic" in2="effect1_dropShadow_301_2453" result="shape"/>
</filter>
</defs>
</svg>
